<?xml version="1.0" standalone="no"?>
<!DOCTYPE svg PUBLIC "-//W3C//DTD SVG 20010904//EN"
 "http://www.w3.org/TR/2001/REC-SVG-20010904/DTD/svg10.dtd">
<svg version="1.0" xmlns="http://www.w3.org/2000/svg"
 width="400.000000pt" height="400.000000pt" viewBox="0 0 400.000000 400.000000"
 preserveAspectRatio="xMidYMid meet">
<metadata>
Created by potrace 1.14, written by Peter Selinger 2001-2017
</metadata>
<g transform="translate(0.000000,400.000000) scale(0.100000,-0.100000)"
fill="#000000" stroke="none">
<path d="M985 3701 c-6 -5 -41 -26 -80 -47 -38 -20 -72 -40 -75 -43 -3 -3 -25
-16 -50 -29 -25 -13 -58 -32 -75 -42 -16 -11 -39 -24 -50 -30 -11 -5 -27 -14
-35 -19 -8 -5 -22 -12 -30 -15 -8 -4 -27 -14 -42 -24 -14 -9 -64 -39 -110 -66
-45 -27 -91 -55 -100 -64 -17 -14 -18 -81 -18 -1132 l0 -1117 28 -24 c15 -13
47 -34 72 -47 25 -13 59 -32 75 -42 17 -11 39 -24 50 -30 11 -5 29 -15 40 -22
34 -19 49 -28 70 -38 11 -6 32 -18 47 -28 28 -18 122 -73 178 -105 40 -22 137
-77 162 -92 9 -5 42 -23 72 -40 31 -16 56 -33 56 -37 0 -4 8 -8 19 -8 10 0 24
-7 31 -15 7 -8 33 -25 59 -37 25 -13 48 -25 51 -28 6 -7 130 -80 135 -80 3 0
39 -21 82 -47 46 -27 90 -46 108 -46 17 0 55 14 85 33 30 18 69 40 85 49 17 9
80 45 140 80 61 35 124 70 140 79 17 10 32 20 35 24 3 4 17 12 30 18 14 5 39
19 55 30 17 10 50 30 75 42 25 13 64 36 87 51 24 15 44 27 47 27 2 0 64 35
138 78 74 43 141 82 149 85 8 4 28 16 44 27 17 11 41 25 55 30 13 6 27 14 30
18 3 4 25 17 50 29 25 12 55 31 68 43 22 21 22 21 22 368 l0 347 103 19 c56
10 115 25 131 32 16 8 34 14 41 14 7 0 32 11 56 25 24 14 51 28 59 32 61 28
250 210 250 240 0 7 4 13 8 13 11 0 69 117 88 178 43 134 53 274 30 402 -18
96 -33 141 -81 240 -30 63 -130 184 -196 238 -63 52 -251 152 -286 152 -10 0
-40 7 -67 15 -95 29 -328 15 -421 -25 -11 -5 -45 -19 -75 -31 -55 -23 -112
-57 -118 -71 -2 -5 -10 -8 -17 -8 -20 0 -155 -138 -198 -203 -42 -63 -86 -160
-113 -252 -25 -83 -25 -331 -1 -389 10 -21 17 -46 17 -56 0 -9 6 -30 14 -46
32 -64 29 -68 -84 -126 -25 -13 -47 -26 -50 -30 -3 -4 -17 -12 -30 -18 -14 -6
-34 -16 -45 -23 -112 -67 -286 -167 -292 -167 -1 0 -3 307 -3 683 0 523 -3
688 -13 707 -7 13 -35 36 -62 50 -28 14 -52 28 -55 31 -5 5 -178 106 -210 122
-8 4 -28 16 -45 27 -16 11 -41 25 -55 30 -13 6 -27 14 -30 18 -3 4 -25 17 -50
30 -25 13 -58 32 -75 42 -79 50 -111 60 -130 41z m348 -289 c12 -7 36 -22 52
-32 17 -11 53 -31 81 -45 89 -44 89 -52 4 -94 -25 -12 -58 -31 -75 -42 -16
-10 -37 -22 -45 -26 -8 -3 -33 -18 -55 -31 -22 -14 -65 -39 -95 -55 -30 -17
-57 -33 -60 -36 -3 -3 -34 -21 -69 -39 -58 -30 -65 -32 -80 -18 -10 9 -23 16
-29 16 -6 0 -17 6 -24 13 -7 7 -33 23 -58 36 -25 12 -57 30 -72 39 -31 20
-128 77 -178 105 -109 60 -140 79 -140 87 0 4 28 22 63 40 34 17 76 40 92 51
17 10 37 22 45 26 14 6 87 50 135 81 11 6 31 17 45 23 13 5 27 13 30 17 3 4
26 17 52 30 26 13 50 27 53 31 4 7 119 -55 328 -177z m-867 -238 c16 -8 43
-24 59 -35 17 -10 41 -25 55 -32 14 -7 44 -25 67 -40 24 -15 44 -27 46 -27 2
0 62 -33 133 -74 l129 -74 3 -728 2 -728 22 -23 c12 -13 27 -23 34 -23 7 0 19
-6 26 -12 7 -7 31 -22 53 -33 22 -11 73 -39 113 -62 41 -24 75 -43 77 -43 2 0
38 -20 79 -45 42 -25 79 -45 81 -45 3 0 29 -16 59 -35 30 -19 59 -35 64 -35
29 0 32 -33 30 -327 -3 -337 3 -313 -73 -263 -16 10 -41 25 -55 33 -54 30
-240 137 -285 164 -11 7 -31 17 -45 23 -13 6 -27 14 -30 18 -3 4 -25 17 -50
30 -25 13 -58 32 -75 42 -16 11 -41 25 -55 32 -14 7 -27 16 -30 20 -3 4 -17
12 -30 17 -14 6 -32 15 -40 21 -27 18 -222 130 -226 130 -2 0 -38 20 -80 45
-41 25 -80 45 -85 45 -5 0 -9 416 -9 1040 0 572 2 1040 3 1040 2 0 17 -7 33
-16z m1134 -650 c0 -524 -3 -668 -13 -677 -7 -7 -30 -21 -52 -32 -22 -11 -42
-23 -45 -26 -5 -6 -17 -12 -107 -59 -26 -14 -57 -33 -67 -42 -11 -10 -24 -18
-28 -18 -5 0 -25 -10 -46 -23 -20 -13 -67 -40 -105 -61 l-67 -36 2 671 3 671
40 24 c22 13 51 29 65 35 13 5 27 13 30 17 3 4 25 17 50 30 25 13 59 32 75 42
17 11 39 24 50 30 11 6 36 20 55 32 19 11 55 32 80 46 25 13 49 28 55 33 5 5
13 9 17 9 4 0 8 -300 8 -666z m1233 416 c14 -11 28 -20 31 -20 4 0 12 -5 19
-10 24 -21 138 -90 147 -90 6 0 10 -4 10 -8 0 -5 10 -14 23 -21 12 -6 36 -20
52 -31 17 -11 39 -24 50 -30 25 -12 58 -33 65 -40 3 -3 38 -25 78 -49 58 -35
72 -48 70 -65 -2 -11 -12 -25 -23 -31 -11 -6 -58 -35 -105 -66 -47 -31 -92
-59 -100 -62 -8 -4 -49 -29 -90 -57 -41 -27 -84 -54 -95 -59 -12 -5 -27 -16
-34 -25 -7 -9 -17 -16 -22 -16 -4 0 -27 -13 -51 -29 -42 -28 -59 -35 -85 -32
-10 1 -13 84 -13 381 l0 380 24 0 c13 0 35 -9 49 -20z m-529 -826 c9 -3 16
-10 16 -14 0 -20 129 -144 196 -190 41 -27 77 -50 80 -50 3 0 21 -7 40 -15 19
-8 49 -22 68 -30 19 -8 42 -15 52 -15 16 0 16 -2 4 -14 -8 -8 -46 -31 -84 -51
-38 -21 -114 -64 -168 -96 -55 -33 -101 -59 -104 -59 -2 0 -38 -20 -80 -45
-41 -25 -77 -45 -79 -45 -1 0 -63 -35 -136 -78 -74 -43 -141 -81 -149 -85 -8
-5 -24 -13 -35 -20 -11 -7 -52 -30 -90 -52 -39 -22 -79 -45 -90 -52 -11 -7
-31 -17 -45 -23 -13 -6 -27 -16 -31 -21 -5 -9 -63 19 -129 61 -8 5 -37 21 -65
35 -27 15 -63 35 -80 45 -16 10 -52 31 -80 45 -27 14 -63 34 -80 45 -16 11
-45 27 -64 37 -19 10 -34 22 -35 27 0 4 17 19 39 32 22 13 50 29 62 36 12 7
43 24 70 38 26 14 50 28 53 31 5 6 17 12 107 59 26 14 57 33 67 43 11 9 23 17
27 17 8 0 130 70 139 80 3 3 36 21 74 40 38 19 74 40 80 45 6 6 31 20 56 33
25 13 57 31 72 40 31 20 125 75 188 110 25 14 59 34 75 44 33 20 37 21 59 12z
m576 -694 c0 -182 -4 -310 -9 -310 -5 0 -54 -26 -108 -58 -54 -32 -105 -61
-113 -65 -8 -4 -42 -23 -75 -42 -33 -19 -69 -40 -80 -45 -11 -6 -33 -19 -50
-30 -16 -11 -41 -25 -55 -30 -13 -6 -27 -15 -30 -19 -3 -4 -35 -24 -73 -45
-37 -20 -101 -57 -143 -81 -42 -25 -77 -45 -80 -45 -2 0 -38 -20 -80 -45 -41
-25 -79 -45 -84 -45 -4 0 -13 -7 -20 -15 -7 -8 -33 -25 -59 -37 -25 -13 -48
-26 -51 -30 -3 -4 -18 -11 -33 -17 l-27 -11 2 307 c3 296 4 308 23 318 45 24
102 57 130 75 17 11 44 26 60 34 17 8 53 29 80 45 28 17 61 36 75 41 13 6 27
14 30 18 3 4 23 16 45 27 22 11 58 31 80 44 56 35 96 58 125 71 13 6 27 14 30
18 3 4 25 17 50 30 25 13 59 32 75 43 17 10 42 24 58 30 15 6 27 15 27 20 0 5
9 9 19 9 11 0 23 5 26 11 4 5 17 15 28 20 12 5 36 18 52 29 17 11 44 26 60 35
17 8 44 24 60 34 17 11 31 20 33 20 1 1 2 -138 2 -309z"/>
</g>
</svg>
